<svg id="Слой_1" data-name="Слой 1" xmlns="http://www.w3.org/2000/svg" xmlns:xlink="http://www.w3.org/1999/xlink" viewBox="0 0 2853.62 1665.6"><defs><linearGradient id="Безымянный_градиент_4" x1="3227.03" y1="1592.88" x2="1741.12" y2="2056.96" gradientUnits="userSpaceOnUse"><stop offset="0.01" stop-color="#2a8bff"/><stop offset="1" stop-color="#000075"/></linearGradient><linearGradient id="Безымянный_градиент_4-2" x1="3850.44" y1="2314.2" x2="1687.57" y2="1969.33" xlink:href="#Безымянный_градиент_4"/><linearGradient id="Безымянный_градиент_4-3" x1="3887.6" y1="2081.16" x2="1724.72" y2="1736.29" xlink:href="#Безымянный_градиент_4"/><linearGradient id="Безымянный_градиент_4-4" x1="3936.15" y1="1776.7" x2="1773.27" y2="1431.83" xlink:href="#Безымянный_градиент_4"/><linearGradient id="Безымянный_градиент_4-5" x1="1318.53" y1="2448.66" x2="3204.66" y2="1763.18" xlink:href="#Безымянный_градиент_4"/><linearGradient id="Безымянный_градиент_4-6" x1="1230.99" y1="2207.78" x2="3117.12" y2="1522.3" xlink:href="#Безымянный_градиент_4"/><linearGradient id="Безымянный_градиент_4-7" x1="1118.24" y1="1897.55" x2="3004.37" y2="1212.07" xlink:href="#Безымянный_градиент_4"/><linearGradient id="Безымянный_градиент_4-8" x1="1162.13" y1="1493.91" x2="2609.73" y2="1678.41" xlink:href="#Безымянный_градиент_4"/></defs><path d="M3937.08,752.53c-112.16,278.31-445.79,552-736.67,724.15-120,61-243.53,106.18-322.83,131.8-36.6,190-156.34,502.64-312.25,606.71v202.94c218.74-145.09,404.25-447,455.61-711.9,194.68-62.49,530.66-164.26,745.66-366.31C3953.66,1193.72,4065.27,1000.21,3937.08,752.53Z" transform="translate(-1138.53 -752.53)" style="fill:url(#Безымянный_градиент_4)"/><path d="M2951.31,2154.69q-29.66,49.2-63,95.67c69.27,6.61,339.06,23.06,455.59-106.5C3343.89,2143.86,3115.15,2211.75,2951.31,2154.69Z" transform="translate(-1138.53 -752.53)" style="fill:url(#Безымянный_градиент_4-2)"/><path d="M3040.74,1980.89q-19.15,44.38-41.62,88c564.55,49,564.65-168.87,564.65-168.87C3469.44,1976.07,3153,1981.93,3040.74,1980.89Z" transform="translate(-1138.53 -752.53)" style="fill:url(#Безымянный_градиент_4-3)"/><path d="M3869.56,1514.57c-198.78,173.9-672.61,266.13-765.29,282.82-8,31-17.56,62.29-28.48,93.63l222.15-12.8C3891.42,1798,3869.56,1514.57,3869.56,1514.57Z" transform="translate(-1138.53 -752.53)" style="fill:url(#Безымянный_градиент_4-4)"/><path d="M2179.71,2153.15c19.77,32.8,40.87,64.77,63,95.67-69.27,6.61-339.06,23.06-455.59-106.5C1787.13,2142.32,2015.88,2210.21,2179.71,2153.15Z" transform="translate(-1138.53 -752.53)" style="fill:url(#Безымянный_градиент_4-5)"/><path d="M2090.28,1979.35q19.17,44.39,41.63,88.05c-564.55,49-564.66-168.86-564.66-168.86C1661.58,1974.53,1978,1980.39,2090.28,1979.35Z" transform="translate(-1138.53 -752.53)" style="fill:url(#Безымянный_градиент_4-6)"/><path d="M1261.46,1513c198.78,173.89,672.62,266.12,765.3,282.81,8,31,17.55,62.29,28.47,93.63l-222.15-12.8C1239.6,1796.48,1261.46,1513,1261.46,1513Z" transform="translate(-1138.53 -752.53)" style="fill:url(#Безымянный_градиент_4-7)"/><path d="M1193.59,752.53c112.16,278.31,445.79,552,736.66,724.15,120,61,243.54,106.18,322.83,131.8,36.61,190,156.35,502.64,312.26,606.71v202.94c-218.73-145.09-404.24-447-455.6-711.9-194.68-62.49-530.66-164.26-745.67-366.31C1177,1193.72,1065.4,1000.21,1193.59,752.53Z" transform="translate(-1138.53 -752.53)" style="fill:url(#Безымянный_градиент_4-8)"/></svg>